<svg width="257" height="153" viewBox="0 0 257 153" fill="none" xmlns="http://www.w3.org/2000/svg">
<g clip-path="url(#clip0_538_2556)">
<path d="M0.345323 77.3362C1.52089 78.2381 2.7948 79.0056 4.15095 79.689L5.30503 77.2954C4.10824 76.7184 3.00172 76.0321 1.96043 75.2286L0.345323 77.3362ZM10.7521 79.0966L10.2496 81.699C12.2766 82.1 14.409 82.2584 16.6056 82.2164L16.5497 79.5455C14.5446 79.5937 12.5786 79.4334 10.7602 79.0716L10.7521 79.0966ZM22.402 78.9618L22.89 81.5777C24.8913 81.1967 26.9488 80.6402 28.9633 79.9594L28.1103 77.4476C26.2121 78.1104 24.279 78.6238 22.394 78.9869L22.402 78.9618ZM33.6015 75.1453L34.7773 77.5119L35.1083 77.3417C36.7549 76.5153 38.4166 75.5556 40.2267 74.4777L38.8523 72.2133C37.1334 73.2652 35.5128 74.1828 33.9324 74.975L33.6346 75.1283L33.6015 75.1453ZM43.9078 68.9423L45.3895 71.1306C47.0082 70.0466 48.5848 68.9215 50.1864 67.8044L50.4341 67.6351L48.9192 65.4638L48.6715 65.6331C47.103 66.7332 45.5014 67.8503 43.9158 68.9173L43.9078 68.9423ZM53.9638 61.9682L55.4375 64.1816C57.0973 63.0555 58.8072 61.9455 60.5181 60.9186L59.1436 58.6542C57.3916 59.7231 55.6486 60.8502 53.9558 61.9933L53.9638 61.9682ZM64.6181 55.628L65.7859 58.0197C67.5819 57.1584 69.429 56.3963 71.2861 55.7756L70.4331 53.2637C68.4848 53.9105 66.5133 54.7156 64.6181 55.628ZM76.5234 51.6786L77.0114 54.2945C79.0047 53.9385 80.9748 53.7409 82.8556 53.7358L82.8499 51.081C80.8026 51.0881 78.6911 51.2956 76.5485 51.6866L76.5234 51.6786ZM89.1738 51.6986L88.6211 54.285C89.372 54.4427 90.1399 54.6336 90.8666 54.8665C91.9692 55.2199 93.0478 55.6485 94.0441 56.1613L95.2483 53.7838C94.1097 53.1978 92.9139 52.7039 91.6859 52.3104C90.8589 52.0453 90.0159 51.8303 89.1898 51.6485L89.1738 51.6986ZM98.7185 59.5111C100.039 60.7359 101.288 62.1862 102.498 63.9282L104.677 62.3883C103.349 60.4978 101.982 58.8991 100.535 57.5509L98.7265 59.486L98.7185 59.5111ZM105.645 69.0267C106.452 70.4738 107.218 71.963 107.985 73.4522L108.478 74.4119L110.836 73.1778L110.342 72.2181C109.551 70.7209 108.768 69.1987 107.968 67.7265L105.653 69.0017L105.645 69.0267ZM111.437 79.8371C112.635 81.8789 113.803 83.5798 114.993 85.0391L117.054 83.3508C115.94 81.9988 114.848 80.4052 113.727 78.4707L111.445 79.8121L111.437 79.8371ZM119.614 89.5047C120.487 90.1438 121.409 90.7157 122.33 91.2044C123.301 91.7091 124.33 92.1217 125.382 92.459L126.193 89.9279C125.291 89.6388 124.388 89.2664 123.534 88.8269C122.705 88.3954 121.917 87.9218 121.162 87.348L119.589 89.4967L119.614 89.5047ZM131.829 90.7948L131.81 93.4416C133.849 93.4596 136.002 93.21 138.185 92.6937L137.58 90.0958C135.605 90.568 133.677 90.8067 131.837 90.7698L131.829 90.7948ZM143.127 88.2256L144.195 90.6684C146.058 89.8562 147.928 88.8525 149.779 87.7325L148.371 85.4851C146.644 86.562 144.882 87.4895 143.144 88.2587L143.127 88.2256ZM153.191 82.0004L154.855 84.0535C156.306 82.8882 157.764 81.6146 159.526 79.9963L157.723 78.0364C156.002 79.6126 154.551 80.8612 153.166 81.9924L153.191 82.0004ZM162.202 73.8899L164.014 75.8247C165.479 74.4429 166.978 73.044 168.485 71.7033L166.723 69.7013C165.182 71.0591 163.684 72.458 162.185 73.8568L162.202 73.8899ZM171.521 65.7675L173.135 67.8877C174.843 66.6113 176.437 65.5192 178.065 64.5766L176.732 62.2701C175.029 63.2718 173.311 64.4069 171.521 65.7675ZM182.443 59.5408L183.387 62.0266C185.21 61.3397 187.118 60.8183 189.044 60.4131L188.523 57.8142C186.431 58.2213 184.39 58.8108 182.443 59.5408ZM194.781 57.0843L194.896 59.7462C196.859 59.6569 198.849 59.7421 200.799 59.9525L201.093 57.3109C199.009 57.0853 196.878 57.0101 194.781 57.0843ZM207.273 58.4628L206.587 61.034C207.246 61.2178 207.881 61.3936 208.533 61.6024C209.76 61.996 210.997 62.4477 212.185 62.9666L213.247 60.5158C211.984 59.9729 210.68 59.472 209.352 59.0462C208.675 58.8294 207.974 58.6045 207.281 58.4377L207.273 58.4628ZM217.377 65.7362C219.054 66.7987 220.624 68.0205 222.063 69.3105L223.854 67.3423C222.315 65.937 220.627 64.6499 218.816 63.4891L217.377 65.7362ZM226.041 73.6254C227.232 75.168 228.308 76.8117 229.244 78.5486L231.584 77.2814C230.58 75.4122 229.411 73.628 228.144 71.9782L226.049 73.6004L226.041 73.6254ZM231.628 83.9555C232.282 85.7955 232.795 87.7287 233.167 89.6719L235.783 89.1839C235.393 87.1244 234.837 85.0669 234.14 83.1025L231.645 83.9886L231.628 83.9555ZM233.834 95.5232C233.916 97.5113 233.838 99.4763 233.628 101.426L236.27 101.72C236.495 99.637 236.562 97.5306 236.496 95.4091L233.834 95.5232ZM230.497 112.748L232.898 113.877C233.775 112.002 234.526 110.005 235.077 107.943L232.513 107.232C231.986 109.135 231.3 111.016 230.497 112.748Z" fill="white"/>
<path d="M224.709 100.972L227.195 100.027L231.897 112.257L243.758 106.635L244.893 109.044L230.458 115.886L224.709 100.972Z" fill="white"/>
</g>
<defs>
<clipPath id="clip0_538_2556">
<rect width="82.3432" height="242.556" fill="white" transform="matrix(0.305227 -0.95228 -0.95228 -0.305227 230.981 152.448)"/>
</clipPath>
</defs>
</svg>
