<svg width="144" height="142" viewBox="0 0 144 142" fill="none" xmlns="http://www.w3.org/2000/svg">
<g clip-path="url(#clip0_538_2553)">
<path d="M141.774 61.2938C139.68 60.5554 137.536 59.8896 135.425 59.2802L136.231 56.459C138.431 57.0927 140.598 57.7748 142.741 58.5455L141.782 61.3341L141.774 61.2938ZM128.971 57.581C126.795 57.0683 124.611 56.6201 122.419 56.2364L122.959 53.342C125.2 53.7581 127.424 54.1983 129.64 54.703L128.987 57.5568L128.971 57.581ZM115.826 55.2144C113.609 54.9194 111.408 54.7051 109.175 54.5391L109.417 51.6198C111.674 51.802 113.94 52.0245 116.197 52.3116L115.826 55.2144ZM102.5 54.1621C100.266 54.1009 98.0408 54.0801 95.8071 54.1239L95.7505 51.1798C98.0246 51.1281 100.29 51.1409 102.588 51.2103L102.5 54.1621ZM89.1378 54.4163C86.9038 54.5649 84.7019 54.77 82.4676 55.0234L82.1448 52.111C84.4195 51.8497 86.6617 51.6366 88.936 51.4801L89.1378 54.4163ZM75.861 55.9532C73.6668 56.3035 71.4644 56.7182 69.294 57.1896L68.7051 54.3089C70.9399 53.8458 73.1586 53.4069 75.4173 53.0648L75.8852 55.9694L75.861 55.9532ZM62.7826 58.7083C60.6282 59.2603 58.4896 59.893 56.3591 60.5661L55.4716 57.7655C57.6425 57.0844 59.8455 56.46 62.0403 55.9L62.7906 58.7487L62.7826 58.7083ZM50.0315 62.6982C47.941 63.4681 45.8584 64.2784 43.8079 65.1451L42.6863 62.4328C44.7772 61.558 46.9163 60.7156 49.0471 59.9377L50.0556 62.7144L50.0315 62.6982ZM37.7045 67.8827C35.6941 68.8463 33.7158 69.8665 31.7454 70.927L30.3574 68.3512C32.3439 67.2665 34.4029 66.2304 36.4295 65.2426L37.7045 67.8827ZM25.9468 74.2539C24.0569 75.4033 22.1587 76.6173 20.3088 77.8635L18.6542 75.4243C20.5365 74.1297 22.4589 72.9319 24.3812 71.7342L25.9065 74.2619L25.9468 74.2539ZM14.8957 81.7639C13.1262 83.0991 11.3888 84.4908 9.68344 85.939L7.79457 83.6928C9.54022 82.2366 11.31 80.7966 13.1361 79.4293L14.8957 81.7639Z" fill="white"/>
<path d="M23.942 88.1063L24.1434 85.195L9.71241 84.1727L11.767 69.8284L8.85714 69.4191L6.35065 86.8918L23.942 88.1063Z" fill="white"/>
</g>
<defs>
<clipPath id="clip0_538_2553">
<rect width="99.4755" height="105.893" fill="white" transform="translate(0 82.636) rotate(-56.1726)"/>
</clipPath>
</defs>
</svg>
