<svg width="41" height="32" viewBox="0 0 41 32" fill="none" xmlns="http://www.w3.org/2000/svg">
<path d="M10.9821 25.6503C10.6517 26.0943 10.1307 26.4522 9.41966 26.7234C9.83015 26.7792 10.1541 26.9154 10.3911 27.1341C10.6281 27.3527 10.7683 27.6212 10.8112 27.9408C10.8789 28.445 10.78 28.9041 10.5133 29.3164C10.2468 29.7293 9.82379 30.0768 9.24435 30.3595C8.66491 30.6423 7.94686 30.8408 7.09164 30.9557C6.77202 30.9986 6.51533 31.0236 6.32149 31.0298C6.33878 31.2093 6.2806 31.3539 6.14544 31.4626C6.01028 31.5713 5.8284 31.6413 5.59838 31.6722C5.36836 31.7031 5.20373 31.6735 5.10373 31.5828C5.00374 31.4921 4.94675 31.3466 4.93296 31.1476C4.87039 30.2459 4.85623 29.2941 4.89039 28.2915C4.92455 27.289 5.0081 26.3146 5.14084 25.3668C5.16418 25.201 5.23878 25.0773 5.36398 24.9958C5.48985 24.9143 5.66073 24.8586 5.87804 24.8294C6.26721 24.7772 6.47701 24.8593 6.50619 25.0766C6.51823 25.1662 6.51249 25.2704 6.48991 25.3912C6.391 25.9117 6.31521 26.6094 6.26389 27.4842C6.21191 28.3591 6.20334 29.1873 6.23687 29.9691C6.54653 29.9533 6.79765 29.9325 6.98888 29.9069C7.88289 29.7868 8.52151 29.5696 8.90534 29.2546C9.2885 28.9397 9.45342 28.5813 9.39944 28.1794C9.36172 27.8986 9.21024 27.678 8.94517 27.5189C8.6801 27.3598 8.26471 27.308 7.70043 27.3641C7.57182 27.3745 7.478 27.3551 7.41945 27.3045C7.36091 27.2538 7.32311 27.1649 7.30595 27.0372C7.28107 26.852 7.29907 26.6971 7.36052 26.5718C7.42197 26.4464 7.55421 26.3667 7.75735 26.3333C8.209 26.2597 8.60991 26.1378 8.96133 25.9667C9.31208 25.7957 9.57804 25.5864 9.75912 25.3381C9.94011 25.0891 10.0113 24.8182 9.97184 24.5246C9.92209 24.1542 9.70096 23.8864 9.30847 23.7213C8.91597 23.5562 8.3426 23.5243 7.58902 23.6255C6.90564 23.7173 6.25686 23.8943 5.64181 24.1553C5.02686 24.4169 4.51372 24.7118 4.10307 25.0399C3.9148 25.1891 3.75037 25.2725 3.60995 25.2913C3.49494 25.3068 3.40196 25.2784 3.33042 25.207C3.25889 25.1356 3.21523 25.0387 3.19898 24.9177C3.1776 24.7585 3.19253 24.6163 3.24395 24.4923C3.29537 24.3683 3.43901 24.2163 3.67468 24.0349C4.16981 23.6566 4.7662 23.3328 5.46519 23.0633C6.16351 22.7938 6.88946 22.6085 7.64304 22.5073C8.79849 22.3521 9.68663 22.4316 10.3073 22.7444C10.928 23.0579 11.2812 23.5339 11.3669 24.1718C11.4398 24.7148 11.3114 25.2079 10.981 25.6518L10.9821 25.6503Z" fill="#333333"/>
<path d="M16.1205 27.7153C16.1783 27.7858 16.2165 27.8875 16.2345 28.0219C16.2688 28.2774 16.2346 28.4835 16.1324 28.6401C15.935 28.9594 15.6369 29.269 15.2382 29.5696C14.8395 29.8703 14.3944 30.0533 13.9029 30.1193C13.2323 30.2094 12.6876 30.0974 12.2683 29.7834C11.849 29.4694 11.5969 28.9961 11.512 28.3642C11.4528 27.9236 11.49 27.5013 11.6242 27.0959C11.7584 26.6912 11.9746 26.3552 12.2735 26.087C12.5725 25.8195 12.9293 25.6579 13.3445 25.6021C13.715 25.5523 14.0267 25.6228 14.2795 25.8128C14.5325 26.0034 14.6842 26.2867 14.7348 26.6631C14.794 27.1038 14.687 27.5034 14.4131 27.8615C14.1393 28.2196 13.6381 28.5429 12.9101 28.8292C13.1093 29.1013 13.432 29.2077 13.8793 29.1477C14.1668 29.109 14.4803 28.9648 14.8204 28.7142C15.1604 28.4637 15.4427 28.1576 15.6671 27.7959C15.7313 27.6961 15.8122 27.6396 15.9078 27.6267C15.9907 27.6156 16.0614 27.6449 16.1198 27.7153L16.1205 27.7153ZM12.7649 27.0543C12.6387 27.3511 12.6023 27.6936 12.6547 28.0834L12.6573 28.1028C13.0217 27.9627 13.3006 27.789 13.494 27.5813C13.6873 27.3736 13.7677 27.1511 13.736 26.9151C13.7197 26.794 13.6732 26.7009 13.5964 26.6363C13.5197 26.5718 13.4238 26.5472 13.3088 26.5626C13.0721 26.5944 12.8912 26.7583 12.7657 27.0549L12.7649 27.0543Z" fill="#333333"/>
<path d="M22.332 24.1259C22.0016 24.5699 21.4806 24.9278 20.7696 25.199C21.1801 25.2548 21.504 25.391 21.741 25.6097C21.978 25.8283 22.1189 26.0967 22.1618 26.4163C22.2295 26.9205 22.1305 27.3797 21.8639 27.7919C21.5974 28.2048 21.1744 28.5523 20.5949 28.8351C20.0155 29.1178 19.2981 29.3162 18.4422 29.4312C18.1226 29.4741 17.8666 29.499 17.6721 29.5054C17.6894 29.6848 17.6312 29.8295 17.496 29.9381C17.3609 30.0468 17.179 30.1169 16.949 30.1478C16.7189 30.1787 16.5543 30.149 16.4543 30.0583C16.3543 29.9676 16.2973 29.8221 16.2835 29.6231C16.221 28.7214 16.2068 27.7696 16.241 26.7671C16.2751 25.7645 16.3587 24.7901 16.4914 23.8424C16.5148 23.6765 16.5894 23.5528 16.7146 23.4714C16.8404 23.3898 17.0113 23.3342 17.2286 23.305C17.6178 23.2527 17.8276 23.3348 17.8568 23.5521C17.8688 23.6417 17.8631 23.746 17.8405 23.8668C17.7416 24.3872 17.6658 25.0849 17.6145 25.9597C17.5632 26.8345 17.5539 27.6629 17.5874 28.4446C17.8971 28.4289 18.1482 28.4081 18.3395 28.3824C19.2335 28.2623 19.8721 28.0452 20.2553 27.7302C20.6384 27.4153 20.8033 27.0569 20.7494 26.655C20.7116 26.3742 20.5601 26.1536 20.2951 25.9945C20.03 25.8354 19.6153 25.7836 19.0503 25.8397C18.9217 25.8502 18.8279 25.8308 18.7694 25.7801C18.7102 25.7295 18.6723 25.6406 18.6552 25.5129C18.6303 25.3277 18.6483 25.1728 18.7098 25.0475C18.7705 24.9222 18.9035 24.8424 19.1066 24.809C19.5582 24.7354 19.9591 24.6135 20.3106 24.4424C20.6613 24.2714 20.9273 24.0621 21.1084 23.8138C21.2894 23.5648 21.3605 23.2939 21.3211 23.0003C21.2713 22.6299 21.0502 22.3621 20.6577 22.197C20.2652 22.0319 19.6918 22 18.9383 22.1012C18.2549 22.193 17.6061 22.37 16.9911 22.631C16.3761 22.8926 15.863 23.1875 15.4523 23.5156C15.264 23.6648 15.0996 23.7482 14.9592 23.767C14.8442 23.7825 14.7512 23.7541 14.6797 23.6827C14.6081 23.6113 14.5645 23.5144 14.5482 23.3934C14.5268 23.2342 14.5418 23.092 14.5932 22.968C14.6446 22.844 14.7882 22.692 15.0239 22.5106C15.5191 22.1323 16.1154 21.8085 16.8144 21.539C17.5127 21.2696 18.2387 21.0842 18.9923 20.983C20.1477 20.8278 21.0359 20.9073 21.6572 21.22C22.2779 21.5335 22.6311 22.0096 22.7168 22.6475C22.7898 23.1904 22.6613 23.6835 22.3309 24.1275L22.332 24.1259Z" fill="#B0C5A4"/>
<path d="M23.5397 28.4347C23.4064 28.1926 23.3021 27.7907 23.2265 27.2284C23.1151 26.3985 23.1275 25.5936 23.2632 24.815C23.2958 24.6221 23.3719 24.4737 23.4913 24.3698C23.6108 24.266 23.7883 24.1985 24.025 24.1668C24.1527 24.1496 24.2444 24.1536 24.2996 24.1789C24.3547 24.2042 24.3883 24.2616 24.4002 24.3505C24.414 24.4528 24.3973 24.6886 24.3491 25.0592C24.3192 25.3233 24.2984 25.5534 24.286 25.7505C24.2736 25.9468 24.2733 26.1878 24.2856 26.4721C24.4225 25.8948 24.5985 25.4158 24.8142 25.0355C25.0294 24.6561 25.2538 24.3754 25.4861 24.1945C25.7185 24.0135 25.9399 23.9089 26.1506 23.8806C26.5658 23.8248 26.801 24.0049 26.8567 24.4195C26.8678 24.5024 26.8661 24.7075 26.8515 25.0342C26.835 25.2965 26.831 25.4597 26.8395 25.5232C26.8695 25.7465 26.9641 25.8475 27.1239 25.8261C27.3025 25.8021 27.5136 25.6308 27.7567 25.3122C27.8285 25.2181 27.9092 25.1651 27.9988 25.1531C28.0817 25.1419 28.1522 25.1699 28.2095 25.2371C28.2676 25.3042 28.3041 25.3986 28.3203 25.5197C28.352 25.7557 28.3134 25.9495 28.2037 26.101C28.0501 26.3102 27.862 26.4961 27.6402 26.6594C27.4184 26.8226 27.1731 26.9222 26.905 26.9582C26.5667 27.0037 26.2976 26.952 26.0993 26.803C25.9002 26.6541 25.7814 26.4332 25.7419 26.139C25.729 26.0434 25.7255 25.9465 25.732 25.8476C25.7276 25.7182 25.7227 25.631 25.7166 25.5862C25.7029 25.4839 25.6613 25.4378 25.5904 25.4473C25.4948 25.4601 25.3828 25.5841 25.2551 25.8191C25.1273 26.0541 25.0108 26.357 24.9042 26.7294C24.7983 27.101 24.723 27.4882 24.6797 27.8909C24.6498 28.2005 24.5955 28.4141 24.5174 28.5322C24.4386 28.6503 24.3005 28.7219 24.1026 28.7485C23.8599 28.7811 23.6722 28.6763 23.5383 28.4343L23.5397 28.4347Z" fill="#B0C5A4"/>
<path d="M27.9533 27.7937C27.6779 27.5379 27.5097 27.1773 27.447 26.7106C27.3784 26.1997 27.4311 25.7005 27.6065 25.212C27.7813 24.7242 28.0461 24.3143 28.402 23.984C28.7573 23.6537 29.1552 23.4587 29.5958 23.3995C29.7362 23.3807 29.8342 23.3954 29.8896 23.4431C29.9451 23.4908 29.9976 23.5831 30.0486 23.7192C30.1796 23.6758 30.3175 23.6436 30.4646 23.6239C30.7776 23.5818 30.949 23.6725 30.979 23.8958C30.9971 24.0302 30.9918 24.3556 30.9639 24.8727C30.9154 25.6266 30.9111 26.1473 30.9497 26.4348C30.9626 26.5304 30.997 26.6041 31.0522 26.6552C31.108 26.7062 31.1741 26.7266 31.2503 26.7164C31.3713 26.7001 31.5079 26.6021 31.6594 26.4225C31.8109 26.2429 32.0095 25.9575 32.2566 25.567C32.3208 25.4671 32.4017 25.4106 32.4973 25.3978C32.5802 25.3867 32.6508 25.416 32.7093 25.4864C32.7671 25.5569 32.8053 25.6587 32.8233 25.7931C32.8577 26.0485 32.8234 26.2546 32.7212 26.4113C32.5028 26.7721 32.2623 27.0842 31.9987 27.347C31.7352 27.6097 31.466 27.7596 31.1912 27.7965C30.9805 27.8248 30.7777 27.7792 30.5832 27.6589C30.388 27.5388 30.2293 27.3607 30.1062 27.1233C29.8459 27.7042 29.464 28.0285 28.9598 28.0962C28.564 28.1494 28.2284 28.0481 27.9538 27.7929L27.9533 27.7937ZM29.5428 26.7803C29.6482 26.5973 29.7109 26.3643 29.7315 26.0824L29.8493 24.2729C29.582 24.3156 29.3481 24.4491 29.1476 24.6741C28.947 24.8992 28.8011 25.1809 28.7102 25.5178C28.6187 25.8554 28.5973 26.2028 28.6452 26.5598C28.6718 26.7578 28.7317 26.8995 28.8241 26.9844C28.9165 27.0693 29.0333 27.1027 29.1738 27.0838C29.3142 27.0649 29.4368 26.9641 29.5429 26.781L29.5428 26.7803Z" fill="#B0C5A4"/>
<path d="M32.4967 27.1731C32.2687 26.9049 32.1221 26.5277 32.0569 26.0423C32.0182 25.7547 32.0055 25.3814 32.0186 24.9208C32.0317 24.4609 32.0689 24.0284 32.1323 23.6237C32.1624 23.4121 32.2203 23.2606 32.3057 23.1716C32.3911 23.0825 32.539 23.0232 32.7496 22.9949C33.0753 22.9511 33.2531 23.0382 33.2822 23.2548C33.3036 23.4147 33.2925 23.7933 33.2496 24.3906C33.1907 25.1133 33.1778 25.5997 33.2112 25.8484C33.2369 26.0397 33.2821 26.1834 33.3473 26.2787C33.4118 26.3742 33.5049 26.4135 33.6266 26.3971C33.7483 26.3808 33.8747 26.2828 34.0258 26.0998C34.1768 25.9168 34.3723 25.6339 34.6136 25.2509C34.6778 25.1511 34.758 25.0947 34.8543 25.0818C34.9372 25.0706 35.0079 25.1 35.0663 25.1704C35.1248 25.2408 35.1623 25.3427 35.1804 25.4771C35.2147 25.7325 35.1804 25.9386 35.0782 26.0953C34.5495 26.9532 34.0109 27.4183 33.4619 27.4921C33.0467 27.5478 32.7254 27.4412 32.4974 27.173L32.4967 27.1731ZM32.2185 22.233C32.068 22.1266 31.9771 21.9618 31.947 21.7378C31.917 21.5138 31.9795 21.3155 32.1352 21.1421C32.291 20.9687 32.4995 20.8637 32.7609 20.8286C32.997 20.7969 33.1966 20.8287 33.3585 20.924C33.521 21.0193 33.6157 21.1719 33.644 21.3826C33.6783 21.638 33.6226 21.8517 33.477 22.0245C33.3313 22.1965 33.1208 22.3017 32.8466 22.3385C32.5725 22.3754 32.3689 22.3394 32.2178 22.2331L32.2185 22.233Z" fill="#B0C5A4"/>
<path d="M34.7552 26.9283C34.6219 26.6861 34.5175 26.2842 34.442 25.7219C34.3305 24.8921 34.3429 24.0872 34.4786 23.3086C34.5113 23.1156 34.5873 22.9672 34.7068 22.8633C34.8263 22.7595 35.0037 22.6921 35.2404 22.6603C35.3681 22.6431 35.4599 22.6471 35.515 22.6724C35.5702 22.6977 35.6037 22.7551 35.6157 22.8441C35.6294 22.9464 35.6128 23.1821 35.5645 23.5528C35.5346 23.8168 35.5138 24.047 35.5015 24.244C35.4891 24.4403 35.4887 24.6814 35.5011 24.9656C35.638 24.3884 35.8139 23.9093 36.0297 23.5291C36.2449 23.1496 36.4693 22.869 36.7016 22.688C36.9339 22.507 37.1554 22.4024 37.366 22.3741C37.5767 22.3458 37.7322 22.3787 37.852 22.4702C37.9718 22.5609 38.0448 22.7091 38.0723 22.9137C38.0945 23.0795 38.1018 23.3971 38.0934 23.8666C38.0815 24.265 38.0802 24.6403 38.0889 24.9938C38.0975 25.3466 38.1303 25.7377 38.1877 26.165C38.2203 26.4077 38.1941 26.5882 38.1094 26.7072C38.0246 26.8261 37.8704 26.8999 37.6471 26.9299C37.4365 26.9582 37.2761 26.9246 37.1652 26.8285C37.055 26.7331 36.9849 26.5764 36.9557 26.359C36.9214 26.1036 36.9096 25.6763 36.9203 25.0766C36.9279 24.5555 36.923 24.2246 36.9041 24.0842C36.8904 23.9819 36.8488 23.9357 36.7779 23.9453C36.695 23.9564 36.5923 24.0791 36.4713 24.3132C36.3502 24.5473 36.2343 24.8501 36.1258 25.2228C36.0165 25.5948 35.9399 25.9822 35.8966 26.3849C35.8667 26.6946 35.8123 26.9081 35.7343 27.0262C35.6555 27.1443 35.5174 27.2159 35.3195 27.2425C35.0768 27.2751 34.8891 27.1703 34.7552 26.9283Z" fill="#B0C5A4"/>
<path fill-rule="evenodd" clip-rule="evenodd" d="M9.28485 12.6382C12.5215 13.7466 11.5 17.1901 9.18047 17.3397C8.21678 17.4072 8.32393 18.8536 9.27216 18.7875C13.0178 18.5513 14.354 13.3004 10.33 11.4842C10.8045 8.09374 13.1943 5.30987 16.4035 4.29339C13.4288 7.6085 15.1018 12.9583 19.5049 13.9223C20.4404 14.1316 20.7516 12.7086 19.8166 12.5081C15.2265 11.4997 15.2244 4.93644 19.7893 3.91214C23.1826 4.18475 26.1903 6.41177 27.3815 9.72076C27.562 10.2227 28.1896 10.3447 28.5482 10.014C31.6817 7.20174 36.3031 11.18 33.9719 14.6939C33.6362 15.2053 34.0398 15.8842 34.6604 15.8165C36.6342 15.5909 38.088 17.6318 37.224 19.4245C37.0525 19.7845 37.2064 20.2213 37.5663 20.3921C39.2885 21.2282 39.9933 15.2697 35.7215 14.4262C37.3424 9.94172 32.4377 5.94296 28.382 8.34542C24.094 -0.802831 10.5177 1.13437 8.92035 11.0799C4.21045 10.4621 1.30538 16.1708 4.6668 19.5967C2.61522 20.4795 1.85928 22.9452 2.96301 24.8173C3.45472 25.6451 4.70082 24.8977 4.21429 24.0781C3.25136 22.4485 4.66047 20.4212 6.54385 20.7898C7.39828 20.963 7.7752 19.7299 6.95049 19.403C4.09296 18.2892 3.87288 14.3093 6.60287 12.8922C8.12712 12.0973 9.29428 12.7084 9.28485 12.6382Z" fill="url(#paint0_linear_81_1617)"/>
<path fill-rule="evenodd" clip-rule="evenodd" d="M38.0062 19.3903C37.4954 18.9273 36.793 19.7085 37.3095 20.1687C39.0103 21.6965 39.1462 24.3147 37.6183 26.0053C37.1575 26.5226 37.9309 27.2172 38.3934 26.7072C39.3216 26.2796 41.0134 22.0844 38.0062 19.3903Z" fill="#B0C5A4"/>
<path d="M24.3181 14.1444C24.3854 14.2348 24.4545 14.3392 24.5257 14.4583L24.6231 14.6106L24.7144 14.7583C24.8659 15.0096 24.9818 15.1887 25.0622 15.2956C25.128 15.3746 25.2461 15.433 25.4163 15.4686C25.567 15.496 25.7106 15.5006 25.8477 15.4822L25.9232 15.472L26.0685 16.5539L25.993 16.5641C25.6647 16.6082 25.3999 16.5777 25.1985 16.4727L25.1825 16.4748C25.2016 16.8909 25.1378 17.2923 24.9917 17.6795C24.5707 18.316 23.9832 18.6856 23.2289 18.7869C22.7201 18.8553 22.3007 18.7537 21.9709 18.4821C21.6243 18.1978 21.4103 17.7548 21.3294 17.1524C21.2654 16.6763 21.3413 16.1467 21.5563 15.563L21.8682 15.6702C21.7475 16.0281 21.7064 16.3509 21.7452 16.6397C21.7994 17.0436 21.9619 17.3356 22.2319 17.5165C22.4819 17.6851 22.8021 17.7428 23.192 17.6905C23.5457 17.643 23.8889 17.492 24.2218 17.2383C24.5317 17.002 24.7042 16.7862 24.7405 16.59C24.6463 16.1874 24.3466 15.6641 23.8414 15.0199C23.9685 14.7094 24.104 14.4209 24.2487 14.1551L24.3189 14.1457L24.3181 14.1444ZM22.256 15.4404C22.3671 15.4772 22.645 15.6305 23.0892 15.9017C23.3055 15.6521 23.4359 15.4215 23.481 15.2099L23.4781 15.1885C23.129 14.9161 22.8488 14.7407 22.6362 14.6624L22.2501 15.397L22.256 15.4404Z" fill="#B0C5A4"/>
<path d="M31.3255 11.6607C31.2631 11.6323 31.2079 11.6213 31.1611 11.6276C30.9716 11.8586 30.6562 12.1052 30.2133 12.3662C30.0061 12.3539 29.8015 12.3208 29.5996 12.2669L29.5709 12.2156C30.1327 11.9128 30.5201 11.6803 30.7334 11.5196C30.3247 11.4826 30.1 11.3147 30.0598 11.0152C30.0312 10.8025 30.1028 10.5853 30.2752 10.364C30.4416 10.1838 30.6225 10.0805 30.8177 10.0543C30.9695 10.0339 31.0993 10.0879 31.2085 10.2169C31.3129 10.3349 31.3782 10.497 31.4059 10.703C31.42 10.808 31.425 10.9264 31.4203 11.0591C31.4833 11.0615 31.5475 11.0788 31.6144 11.11C31.5351 11.3153 31.4386 11.4991 31.3249 11.6614L31.3255 11.6607Z" fill="#B0C5A4"/>
<path d="M28.3971 12.2746C28.2909 12.1677 28.1853 12.1213 28.0809 12.1353C27.8389 12.1678 27.5342 12.332 27.1667 12.6271C26.7923 12.9306 26.6171 13.1672 26.6399 13.337C26.653 13.4346 26.7592 13.5007 26.9587 13.5365C27.162 13.5753 27.4118 13.5751 27.7081 13.5353C28.0043 13.4955 28.2873 13.4486 28.6025 13.3879C28.803 13.3501 29.0764 13.2929 29.4223 13.2172C30.1325 13.0667 30.6685 12.9675 31.0296 12.919C31.6247 12.839 32.0931 12.9102 32.4354 13.1324C32.7888 13.3566 32.9934 13.6783 33.0495 14.0962C33.0791 14.3162 32.9994 14.7217 32.8106 15.3128C32.2335 15.3903 31.2144 15.5823 29.7539 15.8888C28.2972 16.1981 27.1432 16.4103 26.292 16.5246L25.9891 16.5653C25.8668 16.5817 25.7634 16.5371 25.679 16.4307C25.6039 16.3379 25.5567 16.2197 25.5373 16.0753C25.5179 15.9308 25.5323 15.8044 25.5802 15.6951C25.6336 15.5702 25.7214 15.4998 25.8438 15.4834L26.2062 15.4347C26.8624 15.3432 27.5057 15.2418 28.1375 15.1311C28.5756 15.0579 29.0884 14.9632 29.6747 14.8477C30.9015 14.606 31.7677 14.4508 32.2725 14.383C32.0368 14.0219 31.5655 13.8885 30.8581 13.9835C30.5264 14.0281 29.995 14.1308 29.2637 14.2916C28.9003 14.3738 28.624 14.4347 28.4346 14.4744C28.1301 14.5337 27.8571 14.5792 27.6157 14.6117C26.6669 14.7391 26.1533 14.5086 26.0744 13.9208C26.0444 13.6975 26.0872 13.4031 26.2037 13.0389C26.3562 12.563 26.6368 12.123 27.0455 11.7196C27.4693 11.2917 27.8341 11.0575 28.141 11.0163C28.4479 10.9751 28.6107 11.1077 28.6514 11.4106C28.6819 11.638 28.63 11.92 28.495 12.258L28.3981 12.2765L28.3971 12.2746Z" fill="#B0C5A4"/>
<path d="M22.2092 20.7979C22.0193 20.8234 21.8532 20.7776 21.7122 20.6604C21.5667 20.5404 21.478 20.3617 21.4463 20.1256C21.4104 19.8582 21.4641 19.6195 21.6081 19.4096C21.7332 19.2206 21.879 19.1152 22.0442 19.093C22.2093 19.0708 22.385 19.1316 22.5476 19.2779C22.7109 19.4248 22.8055 19.5966 22.832 19.7939C22.8561 19.9737 22.8463 20.1541 22.8026 20.3356C22.6704 20.6079 22.4725 20.7618 22.2084 20.7973L22.2092 20.7979Z" fill="#B0C5A4"/>
<path d="M27.8055 20.8529L27.7313 20.8628C27.3822 20.9097 27.0951 20.8244 26.8685 20.6077L26.8471 20.6106C26.8593 20.8635 26.8195 21.1398 26.7269 21.4388C26.5592 21.7411 26.3347 21.9898 26.0526 22.1856C25.7762 22.3732 25.4799 22.4886 25.163 22.5311C24.6307 22.6026 24.2054 22.4766 23.8857 22.154C23.6201 21.8847 23.4567 21.5248 23.3962 21.0741C23.3214 20.5178 23.3868 19.9651 23.593 19.4173L23.9009 19.5053C23.7988 19.8955 23.7633 20.2038 23.7935 20.4292C23.8409 20.7816 23.9813 21.0513 24.214 21.2386C24.4514 21.4293 24.7462 21.5007 25.0986 21.4533C25.3205 21.4235 25.5472 21.3373 25.7793 21.1951C26.0347 21.039 26.235 20.8473 26.38 20.6196C26.3571 20.368 26.331 20.1333 26.3017 19.9146C26.2506 19.5342 26.1601 18.9922 26.0295 18.2889C25.9777 18.0092 25.9182 17.6884 25.8522 17.3283C25.8054 17.0868 25.7428 16.7671 25.6641 16.3693C25.8152 16.1305 25.9766 15.9182 26.1492 15.7337L26.2391 15.7645C26.4038 16.6715 26.5696 17.7337 26.7374 18.9521C26.7824 19.2871 26.8785 19.5213 27.0259 19.656C27.1829 19.7854 27.3707 19.8357 27.5894 19.8063L27.6636 19.7964L27.8056 20.8535L27.8055 20.8529Z" fill="#333333"/>
<path d="M29.8241 21.423C29.3983 21.6735 28.8259 21.973 28.1048 22.3211L28.0745 22.2931L28.1301 21.7853C28.8992 21.424 29.508 21.1217 29.9559 20.8784L29.9802 20.897L29.8249 21.4236L29.8241 21.423Z" fill="#B0C5A4"/>
<path d="M27.7375 19.7858C27.9943 19.7513 28.2154 19.6998 28.4003 19.6321C28.3139 19.4143 28.2545 19.1854 28.2224 18.946C28.1509 18.4137 28.2914 17.9238 28.6435 17.4742C28.8916 17.1577 29.1391 16.9828 29.3852 16.9498C29.5757 16.9242 29.7634 17.014 29.9488 17.2185C30.1975 17.4935 30.3489 17.8353 30.4038 18.2439C30.4492 18.5822 30.4065 18.9589 30.2759 19.3747C30.5419 19.3785 30.8003 19.3669 31.0514 19.3407L31.1256 19.3307L31.2676 20.3878L31.1934 20.3978C30.5983 20.4778 29.9718 20.4509 29.3159 20.3164C28.9087 20.5937 28.4298 20.769 27.8802 20.8428L27.806 20.8528C27.6863 20.8689 27.5851 20.8253 27.5031 20.7213C27.4297 20.6311 27.3841 20.5146 27.3652 20.3742C27.3464 20.2338 27.3603 20.1094 27.4066 20.0031C27.4583 19.8811 27.5444 19.8124 27.6641 19.7963L27.7383 19.7863L27.7375 19.7858Z" fill="#333333"/>
<path d="M32.5343 15.6269C32.1084 15.8774 31.536 16.1769 30.8149 16.525L30.7839 16.4971L30.8396 15.9893C31.6086 15.628 32.2174 15.3257 32.6654 15.0824L32.6896 15.1009L32.5344 15.6276L32.5343 15.6269Z" fill="#333333"/>
<path d="M33.8658 17.629C33.5669 17.4615 33.287 17.395 33.0269 17.4299C32.7668 17.4648 32.5287 17.5418 32.3152 17.6603C32.1317 17.7639 32.0437 17.8438 32.0513 17.9C32.0721 18.0551 32.2196 18.2306 32.493 18.4267C32.7599 18.5992 32.9922 18.6714 33.1894 18.645C33.4502 18.6099 33.9306 18.4106 34.632 18.0475L34.7169 18.1171C34.6231 18.4885 34.5246 18.8244 34.4221 19.1254C34.2405 19.2431 33.9582 19.3817 33.5739 19.5409L33.3437 19.631L33.1141 19.7265C32.9437 19.7957 32.8057 19.8578 32.6979 19.9118C32.1626 20.1736 31.7105 20.3296 31.34 20.3794L31.2658 20.3894C31.1461 20.4054 31.045 20.3618 30.9629 20.2578C30.8902 20.1675 30.844 20.0512 30.8251 19.9108C30.8062 19.7704 30.8202 19.646 30.8665 19.5397C30.9182 19.4177 31.0042 19.3489 31.1239 19.3329L31.1981 19.3229C31.5224 19.2793 31.763 19.2307 31.9213 19.1774L31.9191 19.1614C31.6383 18.9663 31.4764 18.7083 31.4333 18.3873C31.3949 18.1018 31.458 17.7958 31.6217 17.4689C31.8704 16.9692 32.2148 16.6901 32.6548 16.631C33.1483 16.5647 33.5994 16.8268 34.0083 17.4179L33.8646 17.6305L33.8658 17.629Z" fill="#333333"/>
<path d="M27.9533 15.6807C28.1333 15.7641 28.4097 15.9564 28.7837 16.2581C28.7027 16.4303 28.5619 16.6643 28.3614 16.9602C27.9327 16.6522 27.6575 16.4734 27.5367 16.4256L27.531 16.3835C27.815 15.9328 27.9557 15.6988 27.9534 15.6814L27.9533 15.6807Z" fill="#333333"/>
<path d="M29.2127 15.4469C29.4386 15.5779 29.7082 15.771 30.0224 16.027C29.8704 16.3095 29.736 16.5352 29.6186 16.7055L29.6215 16.7269L29.6001 16.7297L28.7697 16.1524C29.0277 15.727 29.1759 15.492 29.2128 15.4475L29.2127 15.4469Z" fill="#333333"/>
<path fill-rule="evenodd" clip-rule="evenodd" d="M14.8813 15.3806C14.428 14.2665 12.1159 15.0393 14.5796 17.6607C13.3502 18.0457 12.2891 18.9234 11.7082 20.158C11.2988 21.0176 12.607 21.6452 13.0212 20.7761C13.6936 19.3502 15.7066 18.6618 17.2281 19.0578C19.7075 19.7384 19.1772 19.8852 20.9098 18.0868C21.5735 17.398 20.4268 16.518 19.9238 17.3343C18.859 19.0621 15.8308 17.7166 14.8813 15.3806Z" fill="#333333"/>
<path fill-rule="evenodd" clip-rule="evenodd" d="M25.2423 12.0088C26.0695 11.9031 25.9024 10.6438 25.0742 10.757C22.3348 11.1209 19.8216 9.19029 19.4676 6.45843C19.3541 5.62888 18.1082 5.7942 18.2143 6.61996C17.8791 7.80861 20.4064 12.657 25.243 12.0087L25.2423 12.0088Z" fill="#333333"/>
<defs>
<linearGradient id="paint0_linear_81_1617" x1="1.3682" y1="15.1079" x2="37.8452" y2="10.2084" gradientUnits="userSpaceOnUse">
<stop offset="0.4" stop-color="#333333"/>
<stop offset="0.45" stop-color="#363736"/>
<stop offset="0.51" stop-color="#424440"/>
<stop offset="0.58" stop-color="#545A51"/>
<stop offset="0.64" stop-color="#6E7869"/>
<stop offset="0.71" stop-color="#909F87"/>
<stop offset="0.76" stop-color="#B0C5A4"/>
</linearGradient>
</defs>
</svg>
