<svg width="24" height="24" viewBox="0 0 24 24" fill="none" xmlns="http://www.w3.org/2000/svg">
<path d="M17 9C17 12.87 13.64 16 9.5 16L8.57001 17.12L8.02 17.78C7.55 18.34 6.65 18.22 6.34 17.55L5 14.6C3.18 13.32 2 11.29 2 9C2 5.13 5.36 2 9.5 2C12.52 2 15.13 3.67001 16.3 6.07001C16.75 6.96001 17 7.95 17 9Z" stroke="#333333" stroke-width="1.5" stroke-linecap="round" stroke-linejoin="round"/>
<path d="M22 12.8603C22 15.1503 20.82 17.1803 19 18.4603L17.66 21.4103C17.35 22.0803 16.45 22.2103 15.98 21.6403L14.5 19.8603C12.08 19.8603 9.92001 18.7903 8.57001 17.1203L9.5 16.0003C13.64 16.0003 17 12.8703 17 9.00031C17 7.95031 16.75 6.96031 16.3 6.07031C19.57 6.82031 22 9.58029 22 12.8603Z" stroke="#333333" stroke-width="1.5" stroke-linecap="round" stroke-linejoin="round"/>
<path d="M7 9H12" stroke="#333333" stroke-width="1.5" stroke-linecap="round" stroke-linejoin="round"/>
</svg>
