<svg width="20" height="20" viewBox="0 0 20 20" fill="none" xmlns="http://www.w3.org/2000/svg">
<path d="M9.97506 18.3334C14.5774 18.3334 18.3084 14.6025 18.3084 10.0001C18.3084 5.39771 14.5774 1.66675 9.97506 1.66675C5.37268 1.66675 1.64172 5.39771 1.64172 10.0001C1.64172 14.6025 5.37268 18.3334 9.97506 18.3334Z" stroke="#333333" stroke-width="1.5" stroke-linecap="round" stroke-linejoin="round"/>
<path d="M8.93329 12.1083V7.89159C8.93329 7.49159 8.76663 7.33325 8.34163 7.33325H7.25829C6.83329 7.33325 6.66663 7.49159 6.66663 7.89159V12.1083C6.66663 12.5083 6.83329 12.6666 7.25829 12.6666H8.33329C8.76663 12.6666 8.93329 12.5083 8.93329 12.1083Z" stroke="#333333" stroke-width="1.5" stroke-linecap="round" stroke-linejoin="round"/>
<path d="M13.3333 12.1083V7.89159C13.3333 7.49159 13.1666 7.33325 12.7416 7.33325H11.6666C11.2416 7.33325 11.075 7.49159 11.075 7.89159V12.1083C11.075 12.5083 11.2416 12.6666 11.6666 12.6666H12.7416C13.1666 12.6666 13.3333 12.5083 13.3333 12.1083Z" stroke="#333333" stroke-width="1.5" stroke-linecap="round" stroke-linejoin="round"/>
</svg>
