<svg width="31" height="39" viewBox="0 0 31 39" fill="none" xmlns="http://www.w3.org/2000/svg">
<path d="M30.376 35.5021C29.7656 35.9714 29.1319 36.4114 28.4765 36.8191C24.7125 39.1626 20.2951 38.4687 15.5317 38.3483C10.7682 38.2279 6.32039 38.6977 2.67959 36.1671C2.04559 35.7268 1.43491 35.2559 0.849053 34.7558C1.32067 31.7476 3.26211 29.1562 6.02209 27.8742C4.51018 27.2774 3.43055 26.3237 2.77689 25.6067C2.3365 25.1293 2.32656 24.4075 2.74242 23.9092C3.90884 22.5239 6.07701 19.8419 6.257 13.552L6.34881 9.91924C6.48439 4.55513 11.094 0.137792 16.494 0.274272C21.8939 0.410752 26.274 5.05529 26.1384 10.4194L26.0491 13.9533C25.8883 20.3145 27.9321 23.1234 29.034 24.5737C29.4241 25.0924 29.3778 25.8127 28.9133 26.2673C28.2243 26.9503 27.0912 27.8481 25.5505 28.3677C28.2484 29.7872 30.0559 32.4738 30.376 35.5021Z" fill="#9E9E9E"/>
</svg>
