<svg width="26" height="26" viewBox="0 0 26 26" fill="none" xmlns="http://www.w3.org/2000/svg">
<path d="M18.2325 16.9435C18.9583 16.4668 19.9117 16.9868 19.9117 17.8535V19.251C19.9117 20.6268 18.8392 22.1002 17.55 22.5335L14.0942 23.6818C13.4875 23.8877 12.5017 23.8877 11.9058 23.6818L8.44999 22.5335C7.14998 22.1002 6.08832 20.6268 6.08832 19.251V17.8427C6.08832 16.9868 7.04165 16.4668 7.75665 16.9327L9.98832 18.3843C10.8442 18.9585 11.9275 19.2402 13.0108 19.2402C14.0942 19.2402 15.1775 18.9585 16.0333 18.3843L18.2325 16.9435Z" fill="#333333"/>
<path d="M21.645 6.99844L15.1559 2.74094C13.9859 1.97177 12.0575 1.97177 10.8875 2.74094L4.36585 6.99844C2.27502 8.3526 2.27502 11.4184 4.36585 12.7834L6.09919 13.9101L10.8875 17.0301C12.0575 17.7993 13.9859 17.7993 15.1559 17.0301L19.9117 13.9101L21.3959 12.9351V16.2501C21.3959 16.6943 21.7642 17.0626 22.2084 17.0626C22.6525 17.0626 23.0209 16.6943 23.0209 16.2501V10.9201C23.4542 9.5226 23.01 7.8976 21.645 6.99844Z" fill="#333333"/>
</svg>
