<svg width="20" height="20" viewBox="0 0 20 20" fill="none" xmlns="http://www.w3.org/2000/svg">
<path opacity="0.4" d="M0.751726 16.5981C0.341986 16.5981 0.00175485 16.2579 0.00175485 15.8482V10.1491C-0.0479993 7.43971 0.961717 4.87957 2.8414 2.95964C4.72108 1.04996 7.24099 0 9.95039 0C15.4899 0 19.9993 4.50934 19.9993 10.0489V15.7479C19.9993 16.1577 19.659 16.4979 19.2493 16.4979C18.8396 16.4979 18.4993 16.1577 18.4993 15.7479V10.0489C18.4993 5.33979 14.6697 1.49994 9.95039 1.49994C7.64048 1.49994 5.50105 2.38966 3.91112 4.0096C2.31093 5.63978 1.46145 7.80921 1.5017 10.1286V15.8379C1.5017 16.2579 1.17171 16.5981 0.751726 16.5981Z" fill="#292D32"/>
<path d="M3.94111 10.3997H3.81087C1.71096 10.3997 0.00102234 12.1096 0.00102234 14.2095V16.0892C0.00102234 18.1891 1.71096 19.899 3.81087 19.899H3.94111C6.04103 19.899 7.75097 18.1891 7.75097 16.0892V14.2095C7.75097 12.1096 6.04103 10.3997 3.94111 10.3997Z" fill="#333333"/>
<path d="M16.1902 10.3997H16.0599C13.96 10.3997 12.2501 12.1096 12.2501 14.2095V16.0892C12.2501 18.1891 13.96 19.899 16.0599 19.899H16.1902C18.2901 19.899 20 18.1891 20 16.0892V14.2095C20 12.1096 18.2901 10.3997 16.1902 10.3997Z" fill="#333333"/>
</svg>
