<svg width="58" height="58" viewBox="0 0 58 58" fill="none" xmlns="http://www.w3.org/2000/svg">
<rect width="50" height="50" rx="10" fill="#8DD0B1"/>
<path d="M57 47C57 48.875 56.475 50.65 55.55 52.15C53.825 55.05 50.65 57 47 57C43.35 57 40.175 55.05 38.45 52.15C37.525 50.65 37 48.875 37 47C37 41.475 41.475 37 47 37C52.525 37 57 41.475 57 47Z" fill="#8DD0B1" stroke="white" stroke-width="1.5" stroke-miterlimit="10" stroke-linecap="round" stroke-linejoin="round"/>
<path d="M42.8334 46.9873L45.4776 49.5L51.1667 44.5" fill="#8DD0B1"/>
<path d="M42.8334 46.9873L45.4776 49.5L51.1667 44.5" stroke="white" stroke-width="1.5" stroke-linecap="round" stroke-linejoin="round"/>
<path d="M35 20.4299V26.4299C35 27.9299 34.5 29.1799 33.62 30.0599C32.75 30.9299 31.5 31.4299 30 31.4299V33.5599C30 34.3599 29.11 34.84 28.45 34.4L24 31.4299H21.88C21.96 31.1299 22 30.8199 22 30.4999C22 29.4799 21.61 28.54 20.97 27.83C20.25 27.01 19.18 26.4999 18 26.4999C16.88 26.4999 15.86 26.96 15.13 27.71C15.04 27.31 15 26.8799 15 26.4299V20.4299C15 17.4299 17 15.4299 20 15.4299H30C33 15.4299 35 17.4299 35 20.4299Z" stroke="white" stroke-width="1.5" stroke-miterlimit="10" stroke-linecap="round" stroke-linejoin="round"/>
<path d="M22 30.5C22 31.25 21.79 31.96 21.42 32.56C21.21 32.92 20.94 33.24 20.63 33.5C19.93 34.13 19.01 34.5 18 34.5C16.54 34.5 15.27 33.72 14.58 32.56C14.21 31.96 14 31.25 14 30.5C14 29.24 14.58 28.11 15.5 27.38C16.19 26.83 17.06 26.5 18 26.5C20.21 26.5 22 28.29 22 30.5Z" stroke="white" stroke-width="1.5" stroke-miterlimit="10" stroke-linecap="round" stroke-linejoin="round"/>
<path d="M16.4399 30.5L17.4299 31.49L19.5599 29.52" stroke="white" stroke-width="1.5" stroke-linecap="round" stroke-linejoin="round"/>
<path d="M21.5 23.5H28.5" stroke="white" stroke-width="1.5" stroke-miterlimit="10" stroke-linecap="round" stroke-linejoin="round"/>
</svg>
