<svg width="58" height="58" viewBox="0 0 58 58" fill="none" xmlns="http://www.w3.org/2000/svg">
<rect width="50" height="50" rx="10" fill="#8DD0B1"/>
<path d="M23.05 15.53L17.03 19.46C15.1 20.72 15.1 23.54 17.03 24.8L23.05 28.73C24.13 29.44 25.91 29.44 26.99 28.73L32.98 24.8C34.9 23.54 34.9 20.73 32.98 19.47L26.99 15.54C25.91 14.82 24.13 14.82 23.05 15.53Z" stroke="white" stroke-width="1.5" stroke-linecap="round" stroke-linejoin="round"/>
<path d="M18.63 26.0801L18.62 30.7701C18.62 32.0401 19.6 33.4001 20.8 33.8001L23.99 34.8601C24.54 35.0401 25.45 35.0401 26.01 34.8601L29.2 33.8001C30.4 33.4001 31.38 32.0401 31.38 30.7701V26.1301" stroke="white" stroke-width="1.5" stroke-linecap="round" stroke-linejoin="round"/>
<path d="M34.4 28V22" stroke="white" stroke-width="1.5" stroke-linecap="round" stroke-linejoin="round"/>
<path d="M57 47C57 48.875 56.475 50.65 55.55 52.15C53.825 55.05 50.65 57 47 57C43.35 57 40.175 55.05 38.45 52.15C37.525 50.65 37 48.875 37 47C37 41.475 41.475 37 47 37C52.525 37 57 41.475 57 47Z" fill="#8DD0B1" stroke="white" stroke-width="1.5" stroke-miterlimit="10" stroke-linecap="round" stroke-linejoin="round"/>
<path d="M42.8333 46.9873L45.4775 49.5L51.1666 44.5" fill="#8DD0B1"/>
<path d="M42.8333 46.9873L45.4775 49.5L51.1666 44.5" stroke="white" stroke-width="1.5" stroke-linecap="round" stroke-linejoin="round"/>
</svg>
