<svg width="58" height="58" viewBox="0 0 58 58" fill="none" xmlns="http://www.w3.org/2000/svg">
<rect width="50" height="50" rx="10" fill="#8DD0B1"/>
<path d="M57 47C57 48.875 56.475 50.65 55.55 52.15C53.825 55.05 50.65 57 47 57C43.35 57 40.175 55.05 38.45 52.15C37.525 50.65 37 48.875 37 47C37 41.475 41.475 37 47 37C52.525 37 57 41.475 57 47Z" fill="#8DD0B1" stroke="white" stroke-width="1.5" stroke-miterlimit="10" stroke-linecap="round" stroke-linejoin="round"/>
<path d="M42.8334 46.9873L45.4776 49.5L51.1667 44.5" fill="#8DD0B1"/>
<path d="M42.8334 46.9873L45.4776 49.5L51.1667 44.5" stroke="white" stroke-width="1.5" stroke-linecap="round" stroke-linejoin="round"/>
<path d="M25.53 33.4201H19.21C16.05 33.4201 15 31.3201 15 29.2101V20.7901C15 17.6301 16.05 16.5801 19.21 16.5801H25.53C28.69 16.5801 29.74 17.6301 29.74 20.7901V29.2101C29.74 32.3701 28.68 33.4201 25.53 33.4201Z" stroke="white" stroke-width="1.5" stroke-linecap="round" stroke-linejoin="round"/>
<path d="M32.52 30.0999L29.74 28.1499V21.8399L32.52 19.8899C33.88 18.9399 35 19.5199 35 21.1899V28.8099C35 30.4799 33.88 31.0599 32.52 30.0999Z" stroke="white" stroke-width="1.5" stroke-linecap="round" stroke-linejoin="round"/>
<path d="M24.5 24C25.3284 24 26 23.3284 26 22.5C26 21.6716 25.3284 21 24.5 21C23.6716 21 23 21.6716 23 22.5C23 23.3284 23.6716 24 24.5 24Z" stroke="white" stroke-width="1.5" stroke-linecap="round" stroke-linejoin="round"/>
</svg>
