<svg width="14" height="16" viewBox="0 0 14 16" fill="none" xmlns="http://www.w3.org/2000/svg">
<path d="M11.3333 5.61601V4.66666C11.3333 2.08935 9.24401 0 6.66667 0C4.08932 0 2 2.08935 2 4.66666V5.61601C0.786689 6.14554 0.00175 7.34285 0 8.66667V12.6667C0.0021875 14.5067 1.49328 15.9978 3.33332 16H9.99998C11.84 15.9978 13.3311 14.5067 13.3333 12.6667V8.66667C13.3316 7.34285 12.5466 6.14554 11.3333 5.61601ZM7.33332 11.3334C7.33332 11.7015 7.03485 12 6.66667 12C6.29848 12 6.00001 11.7015 6.00001 11.3334V10C6.00001 9.63183 6.29848 9.33336 6.66667 9.33336C7.03485 9.33336 7.33332 9.63183 7.33332 10V11.3334ZM10 5.33335H3.33332V4.66669C3.33332 2.82575 4.8257 1.33335 6.66667 1.33335C8.50764 1.33335 10 2.82572 10 4.66669V5.33335Z" fill="#292D32"/>
</svg>
