<svg width="26" height="26" viewBox="0 0 26 26" fill="none" xmlns="http://www.w3.org/2000/svg">
<path d="M22.9125 6.68433C22.4683 6.446 21.5366 6.19683 20.2691 7.08516L18.6766 8.21183C18.5575 4.84266 17.095 3.521 13.5416 3.521H7.04165C3.33665 3.521 1.89581 4.96183 1.89581 8.66683V17.3335C1.89581 19.8252 3.24998 22.4793 7.04165 22.4793H13.5416C17.095 22.4793 18.5575 21.1577 18.6766 17.7885L20.2691 18.9152C20.9408 19.3918 21.5258 19.5435 21.9916 19.5435C22.3925 19.5435 22.7066 19.4243 22.9125 19.316C23.3566 19.0885 24.1041 18.471 24.1041 16.9218V9.0785C24.1041 7.52933 23.3566 6.91183 22.9125 6.68433ZM11.9166 12.3285C10.8008 12.3285 9.87998 11.4185 9.87998 10.2918C9.87998 9.16516 10.8008 8.25516 11.9166 8.25516C13.0325 8.25516 13.9533 9.16516 13.9533 10.2918C13.9533 11.4185 13.0325 12.3285 11.9166 12.3285Z" fill="#292D32"/>
<path d="M6.42785 20.0046C6.2555 20.1768 5.93837 20.3353 5.70397 20.3697L4.27 20.5696C4.21485 20.5764 4.1597 20.5833 4.11144 20.5833C3.87015 20.5833 3.64954 20.5007 3.49097 20.3422C3.29794 20.1493 3.21521 19.8668 3.26347 19.5636L3.4634 18.1305C3.49787 17.8962 3.65643 17.5724 3.82878 17.407L6.42785 14.8095C6.46922 14.9335 6.52437 15.0576 6.58642 15.1954C6.64846 15.3194 6.71051 15.4434 6.77945 15.5605C6.8346 15.657 6.89665 15.7534 6.9518 15.8223C7.02075 15.9257 7.08969 16.0153 7.13795 16.0635C7.16552 16.1048 7.1931 16.1324 7.19999 16.1462C7.35166 16.3184 7.51023 16.4838 7.6619 16.6078C7.70326 16.6491 7.73084 16.6698 7.73773 16.6767C7.82735 16.7456 7.91008 16.8214 7.99281 16.8696C8.08244 16.9385 8.17895 17.0005 8.27547 17.0557C8.39267 17.1246 8.51676 17.1935 8.64775 17.2555C8.77874 17.3175 8.90283 17.3657 9.02693 17.407L6.42785 20.0046ZM10.1782 16.2633L9.6405 16.8007C9.60603 16.8352 9.55777 16.8558 9.50951 16.8558C9.49572 16.8558 9.46815 16.8558 9.45436 16.849C8.26858 16.5113 7.32409 15.5674 6.98628 14.3823C6.96559 14.3203 6.98627 14.2514 7.03453 14.2032L7.57917 13.6589C8.4685 12.7701 9.30958 12.7907 10.1782 13.6589C10.6195 14.0998 10.8401 14.527 10.8332 14.968C10.8332 15.4021 10.6195 15.8223 10.1782 16.2633Z" fill="white"/>
</svg>
