<svg width="17" height="17" viewBox="0 0 17 17" fill="none" xmlns="http://www.w3.org/2000/svg">
<path d="M16.9957 3.46446C16.7791 1.48962 15.1028 0 13.0965 0C10.9494 0 9.20296 1.74817 9.20296 3.89583V5.66667H3.5396C1.58786 5.66667 0 7.25546 0 9.20833V13.4583C0 15.4112 1.58786 17 3.5396 17H9.20296C11.1547 17 12.7426 15.4112 12.7426 13.4583V9.20833C12.7426 7.75908 11.8676 6.51029 10.6188 5.96275V3.89583C10.6188 2.52875 11.7302 1.41667 13.0965 1.41667C14.358 1.41667 15.4525 2.38354 15.5884 3.61888C15.6309 4.00775 15.9877 4.28754 16.3692 4.24575C16.7579 4.20254 17.0382 3.85333 16.9957 3.46446ZM7.0792 12.0417C7.0792 12.4334 6.76205 12.75 6.37128 12.75C5.98051 12.75 5.66336 12.4334 5.66336 12.0417V10.625C5.66336 10.2333 5.98051 9.91667 6.37128 9.91667C6.76205 9.91667 7.0792 10.2333 7.0792 10.625V12.0417Z" fill="#8DD0B1"/>
</svg>
